<?xml version="1.0" encoding="UTF-8"?>
<svg id="Layer_1" xmlns="http://www.w3.org/2000/svg" version="1.1" viewBox="0 0 35.45 34.33">
  <!-- Generator: Adobe Illustrator 30.3.0, SVG Export Plug-In . SVG Version: 2.1.3 Build 182)  -->
  <defs>
    <style>
      .st0 {
        fill: #fff;
      }
    </style>
  </defs>
  <path d="M33.35,3.82v26.13c0,.26,0,.51-.02.76,0,.27-.08.52-.19.75-.2.42-.5.76-.91,1-.32.19-.67.3-1.04.32-.02,0-.04.01-.06.02H4.31s-.04-.02-.06-.02c-.13-.02-.26-.03-.39-.06-.5-.12-.93-.38-1.26-.78-.24-.3-.39-.63-.46-1.01,0-.06-.03-.12-.04-.17V3.57s.02-.08.02-.12c.11-.58.39-1.06.86-1.42.28-.22.58-.36.93-.43.08-.01.15-.04.23-.06h27.15c.08.02.15.03.22.05.51.12.95.36,1.29.76.37.43.55.92.55,1.47Z"/>
  <path id="behance" class="st0" d="M13.26,10.22c.67,0,1.28.06,1.83.18s1.03.31,1.42.58.7.63.92,1.07.33,1,.33,1.66c0,.71-.16,1.3-.48,1.77s-.8.86-1.43,1.16c.87.25,1.51.69,1.94,1.31s.64,1.38.64,2.26c0,.71-.14,1.32-.41,1.84s-.65.94-1.11,1.27c-.47.33-1,.57-1.6.73-.6.16-1.22.24-1.84.24h-6.82v-14.08h6.62ZM12.86,15.92c.55,0,1.01-.13,1.36-.39.36-.26.53-.69.53-1.28,0-.33-.06-.6-.18-.81s-.28-.38-.47-.49c-.2-.12-.42-.2-.68-.25-.26-.05-.53-.07-.8-.07h-2.9v3.29h3.13s0,0,0,0ZM13.04,21.9c.29,0,.58-.03.87-.09.28-.06.52-.16.73-.3.21-.14.38-.33.5-.56.12-.24.19-.54.19-.91,0-.72-.2-1.24-.61-1.55-.41-.31-.95-.46-1.62-.46h-3.37v3.86h3.31s0,0,0,0ZM22.32,21.6c.42.41,1.03.61,1.81.61.57,0,1.05-.14,1.46-.42s.66-.58.75-.9h2.46c-.39,1.22-1,2.1-1.81,2.62-.82.53-1.8.79-2.96.79-.8,0-1.52-.13-2.17-.38s-1.19-.62-1.64-1.09-.79-1.04-1.04-1.7-.36-1.38-.36-2.17.12-1.47.37-2.13.61-1.23,1.07-1.71,1.01-.86,1.65-1.13,1.34-.41,2.12-.41c.87,0,1.62.17,2.27.5.64.34,1.17.79,1.59,1.35.41.57.71,1.21.9,1.93s.25,1.48.2,2.27h-7.35c.04.9.27,1.56.69,1.97h0ZM25.48,16.24c-.34-.37-.85-.55-1.53-.55-.45,0-.82.08-1.11.23-.3.15-.53.34-.71.56-.18.22-.3.46-.37.71-.07.25-.12.47-.13.67h4.55c-.13-.71-.37-1.25-.7-1.62h0ZM21.15,10.94h5.69v1.58h-5.69v-1.58Z"/>
</svg>