<?xml version="1.0" encoding="UTF-8"?>
<svg id="Layer_1" xmlns="http://www.w3.org/2000/svg" xmlns:xlink="http://www.w3.org/1999/xlink" version="1.1" viewBox="0 0 35.45 34.33">
  <!-- Generator: Adobe Illustrator 30.3.0, SVG Export Plug-In . SVG Version: 2.1.3 Build 182)  -->
  <defs>
    <style>
      .st0 {
        fill: none;
      }

      .st1 {
        clip-path: url(#clippath);
      }
    </style>
    <clipPath id="clippath">
      <rect class="st0" x="1.94" y="1.39" width="31.56" height="31.56"/>
    </clipPath>
  </defs>
  <g class="st1">
    <g>
      <path d="M17.73,4.23c4.21,0,4.71.02,6.38.09,1.54.07,2.38.33,2.93.54.69.25,1.31.66,1.81,1.18.52.51.93,1.13,1.18,1.81.22.56.47,1.39.54,2.93.08,1.66.09,2.16.09,6.38s-.02,4.71-.09,6.38c-.07,1.54-.33,2.38-.54,2.93-.25.69-.66,1.31-1.18,1.82-.51.52-1.13.93-1.81,1.18-.56.22-1.39.47-2.93.54-1.66.08-2.16.09-6.38.09s-4.71-.02-6.38-.09c-1.54-.07-2.37-.33-2.93-.54-.69-.25-1.31-.66-1.81-1.18-.52-.51-.93-1.13-1.18-1.82-.22-.55-.47-1.39-.54-2.93-.08-1.66-.09-2.16-.09-6.38s.02-4.71.09-6.38c.07-1.54.33-2.38.54-2.93.25-.68.66-1.3,1.18-1.81.51-.52,1.13-.93,1.81-1.18.56-.22,1.39-.47,2.93-.54,1.66-.08,2.16-.09,6.38-.09h0ZM17.73,1.39c-4.29,0-4.82.02-6.51.09-1.68.08-2.83.34-3.83.73-1.05.4-2.01,1.02-2.8,1.82-.8.79-1.43,1.74-1.83,2.79-.39,1-.66,2.15-.73,3.83-.08,1.68-.1,2.22-.1,6.51s.02,4.82.1,6.51c.08,1.68.34,2.83.73,3.83.4,1.05,1.02,2.01,1.82,2.8.79.8,1.74,1.42,2.8,1.82,1,.39,2.15.66,3.83.73,1.68.08,2.22.1,6.51.1s4.82-.02,6.51-.1c1.68-.08,2.83-.34,3.83-.73,1.05-.4,2.01-1.02,2.8-1.82.8-.79,1.42-1.74,1.82-2.8.39-1,.66-2.15.73-3.83.08-1.68.1-2.22.1-6.51s-.02-4.82-.1-6.51c-.08-1.68-.34-2.83-.73-3.83-.4-1.05-1.02-2.01-1.82-2.8-.79-.8-1.74-1.42-2.79-1.82-1-.39-2.15-.66-3.83-.73-1.68-.08-2.22-.09-6.51-.09h0Z"/>
      <path d="M17.73,9.06c-1.06,0-2.12.21-3.1.62s-1.88,1-2.63,1.76c-.75.75-1.35,1.65-1.76,2.63-.41.98-.62,2.04-.62,3.1,0,2.15.85,4.21,2.37,5.73,1.52,1.52,3.58,2.37,5.73,2.37s4.21-.85,5.73-2.37c1.52-1.52,2.37-3.58,2.37-5.73,0-1.06-.21-2.12-.62-3.1-.41-.98-1-1.88-1.76-2.63-.75-.75-1.65-1.35-2.63-1.76s-2.04-.62-3.1-.62ZM17.73,22.43c-1.4,0-2.73-.55-3.72-1.54-.99-.99-1.54-2.33-1.54-3.72s.55-2.73,1.54-3.72c.99-.99,2.33-1.54,3.72-1.54s2.73.55,3.72,1.54c.99.99,1.54,2.33,1.54,3.72s-.55,2.73-1.54,3.72c-.99.99-2.33,1.54-3.72,1.54Z"/>
      <path d="M26.15,10.64c1.05,0,1.89-.85,1.89-1.89s-.85-1.89-1.89-1.89-1.89.85-1.89,1.89.85,1.89,1.89,1.89Z"/>
    </g>
  </g>
</svg>