<?xml version="1.0" encoding="UTF-8"?>
<svg id="Layer_1" xmlns="http://www.w3.org/2000/svg" version="1.1" viewBox="0 0 35.45 34.33">
  <!-- Generator: Adobe Illustrator 30.3.0, SVG Export Plug-In . SVG Version: 2.1.3 Build 182)  -->
  <defs>
    <style>
      .st0 {
        fill: #fff;
      }
    </style>
  </defs>
  <path d="M2.1,30.75V3.56s.02-.08.03-.11c.11-.58.39-1.06.86-1.43.27-.21.58-.36.92-.42.08-.01.16-.04.24-.06,9.05,0,18.1,0,27.15,0,.07.02.14.03.21.05.51.12.95.36,1.3.76.36.43.54.92.54,1.47,0,8.71,0,17.42,0,26.13,0,.25-.01.51-.02.76,0,.26-.08.51-.19.75-.2.42-.5.76-.91,1-.32.19-.67.3-1.05.32-.02,0-.04.02-.06.03H4.31s-.04-.02-.06-.03c-.13-.02-.26-.03-.39-.06-.51-.12-.93-.38-1.26-.78-.24-.29-.4-.63-.46-1-.01-.06-.03-.12-.04-.17ZM18.93,28.18s0-.09,0-.13c0-2.21,0-4.41,0-6.62,0-.5.01-1.01.04-1.51.01-.25.04-.51.1-.76.08-.37.19-.74.39-1.06.23-.37.53-.67.93-.85.32-.15.66-.23,1-.25.42-.02.83-.01,1.24.14.32.12.59.31.81.58.25.32.39.68.48,1.07.11.46.16.92.16,1.38,0,2.63,0,5.26,0,7.89v.12h4.68s0-.06,0-.09c-.02-3.11.05-6.22-.04-9.33,0-.27-.02-.54-.06-.81-.04-.34-.1-.67-.16-1.01-.11-.59-.3-1.16-.58-1.7-.23-.43-.51-.81-.87-1.14-.27-.25-.57-.46-.9-.62-.45-.23-.92-.39-1.41-.46-.32-.05-.65-.1-.97-.12-.26-.02-.53-.01-.8,0-.24,0-.48.02-.72.06-.52.08-1.02.24-1.49.47-.31.16-.61.34-.88.56-.38.31-.71.66-.97,1.08-.05.07-.09.15-.14.22,0,0-.02,0-.02,0v-2.01h-4.47v14.92h4.65ZM11.38,28.18v-14.92h-4.66v14.92h4.66ZM9.06,11.23c1.51,0,2.66-1.2,2.7-2.6.05-1.62-1.22-2.79-2.64-2.81-1.58-.03-2.74,1.2-2.77,2.66-.03,1.56,1.21,2.76,2.71,2.75Z"/>
  <path class="st0" d="M18.93,28.18h-4.65v-14.92h4.47v2.01s.02,0,.02,0c.05-.07.09-.15.14-.22.26-.42.59-.77.97-1.08.27-.22.57-.41.88-.56.47-.23.97-.39,1.49-.47.24-.04.48-.05.72-.06.26,0,.53-.02.8,0,.33.03.65.07.97.12.5.08.97.23,1.41.46.33.17.62.37.9.62.36.33.64.71.87,1.14.28.54.47,1.11.58,1.7.06.33.12.67.16,1.01.03.27.05.54.06.81.09,3.11.02,6.22.04,9.33,0,.03,0,.05,0,.09h-4.68v-.12c0-2.63,0-5.26,0-7.89,0-.47-.05-.93-.16-1.38-.09-.39-.23-.75-.48-1.07-.21-.27-.48-.46-.81-.58-.4-.15-.82-.16-1.24-.14-.35.02-.69.1-1,.25-.4.19-.7.48-.93.85-.2.33-.31.69-.39,1.06-.05.25-.08.5-.1.76-.02.5-.04,1.01-.04,1.51,0,2.21,0,4.41,0,6.62,0,.04,0,.08,0,.13Z"/>
  <path class="st0" d="M11.38,28.18h-4.66v-14.92h4.66v14.92Z"/>
  <path class="st0" d="M9.06,11.23c-1.49,0-2.73-1.2-2.71-2.75.02-1.46,1.19-2.68,2.77-2.66,1.43.02,2.69,1.19,2.64,2.81-.04,1.4-1.19,2.6-2.7,2.6Z"/>
</svg>