<?xml version="1.0" encoding="UTF-8"?>
<svg id="Layer_1" xmlns="http://www.w3.org/2000/svg" version="1.1" viewBox="0 0 350 44.2">
  <!-- Generator: Adobe Illustrator 30.3.0, SVG Export Plug-In . SVG Version: 2.1.3 Build 182)  -->
  <path d="M6.47,1.78h5.36v35.38h-5.36V1.78ZM33.35,37.17v5.36H11.83v-5.36h21.52ZM33.35,1.78h5.36v35.38h-5.36V1.78Z"/>
  <path d="M49.16,16.91h.11c2.11-2.8,5.08-4.57,9.36-4.57,6.16,0,9.93,3.37,9.93,9.47v20.72h-4.62v-20.32c0-3.82-2.51-5.99-6.68-5.99-4.68,0-8.1,3.31-8.1,8.16v18.15h-4.62V13.03h4.62v3.88Z"/>
  <path d="M72.22,13.03h4.28V3.72h4.62v9.3h5.71v3.77h-5.71v19.18c0,2.05,1.08,2.74,2.97,2.74.91,0,1.94-.23,2.45-.4h.17v4c-1.08.23-2.34.4-3.71.4-3.77,0-6.51-1.54-6.51-5.71v-20.2h-4.28v-3.77Z"/>
  <path d="M91.62,1.73h4.62v5.71h-4.62V1.73ZM91.62,13.03h4.62v29.5h-4.62V13.03Z"/>
  <path d="M100.64,13.03h4.28V3.72h4.62v9.3h5.71v3.77h-5.71v19.18c0,2.05,1.08,2.74,2.97,2.74.91,0,1.94-.23,2.45-.4h.17v4c-1.08.23-2.34.4-3.71.4-3.77,0-6.51-1.54-6.51-5.71v-20.2h-4.28v-3.77Z"/>
  <path d="M120.21,1.73h4.62v40.81h-4.62V1.73Z"/>
  <path d="M129.63,27.81c0-8.56,5.59-15.52,13.98-15.52,8.85,0,13.58,6.85,13.58,16.61h-22.83c.34,5.99,3.6,10.56,9.53,10.56,4.28,0,7.13-2.05,8.16-6.05h4.51c-1.37,6.33-5.99,9.93-12.67,9.93-9.02,0-14.27-6.96-14.27-15.52ZM134.48,25.41h17.75c-.29-5.88-3.31-9.47-8.62-9.47s-8.45,4.11-9.13,9.47Z"/>
  <path d="M160.05,27.86c0-9.82,5.65-15.52,12.95-15.52,4.17,0,7.36,2.05,9.25,4.85h.11V1.73h4.62v40.81h-4.62v-3.6h-.11c-2.23,2.85-4.97,4.45-9.13,4.45-8.05,0-13.07-6.05-13.07-15.52ZM182.65,27.92c0-6.85-3.31-11.64-9.42-11.64-5.59,0-8.45,5.02-8.45,11.64s2.85,11.59,8.5,11.59c6.56,0,9.36-4.91,9.36-11.59Z"/>
  <path d="M201.48,22.1c0-12.21,7.65-21.29,19.97-21.29s19.97,9.07,19.97,21.29-7.65,21.29-19.97,21.29-19.97-9.07-19.97-21.29ZM236.18,22.1c0-9.59-5.14-16.84-14.72-16.84s-14.72,7.25-14.72,16.84,5.14,16.78,14.72,16.78,14.72-7.19,14.72-16.78Z"/>
  <path d="M244.97,13.03h4.05v-4.39c0-5.08,2.91-6.91,7.82-6.91.91,0,1.6.06,2.23.11v3.94c-.68-.06-.97-.06-1.43-.06-2.91,0-3.99.74-3.99,3.14v4.17h9.42v-4.74c0-5.08,2.91-6.91,7.82-6.91.97,0,1.71.06,2.34.11v3.94c-.8-.06-1.03-.06-1.48-.06-2.97,0-4.05.74-4.05,3.14v4.51h5.48v3.77h-5.48v25.74h-4.62v-25.74h-9.42v25.74h-4.62v-25.74h-4.05v-3.77ZM277.1,1.73h4.62v5.71h-4.62V1.73ZM277.1,13.03h4.62v29.5h-4.62V13.03Z"/>
  <path d="M286.35,27.81c0-8.56,5.48-15.52,14.27-15.52,6.96,0,11.59,3.99,12.61,10.27h-4.68c-.68-3.99-3.48-6.45-7.93-6.45-6.28,0-9.53,5.19-9.53,11.7s3.25,11.64,9.53,11.64c4.79,0,7.65-2.74,8.05-7.3h4.57c-.63,7.08-5.25,11.19-12.61,11.19-8.79,0-14.27-6.96-14.27-15.52Z"/>
  <path d="M315.97,27.81c0-8.56,5.59-15.52,13.98-15.52,8.85,0,13.58,6.85,13.58,16.61h-22.83c.34,5.99,3.6,10.56,9.53,10.56,4.28,0,7.13-2.05,8.16-6.05h4.51c-1.37,6.33-5.99,9.93-12.67,9.93-9.02,0-14.27-6.96-14.27-15.52ZM320.82,25.41h17.75c-.29-5.88-3.31-9.47-8.62-9.47s-8.45,4.11-9.13,9.47Z"/>
</svg>